<svg id="Layer_1" data-name="Layer 1" xmlns="http://www.w3.org/2000/svg" viewBox="0 0 44 44"><defs><style>.cls-1{fill:#969696;}.cls-2{fill:none;stroke:#969696;stroke-miterlimit:10;stroke-width:2px;}</style></defs><title>compartir</title><path class="cls-1" d="M32.91,30.22a3.07,3.07,0,0,0-2.12.85l-5.43-2.61a2.65,2.65,0,0,0,0-.46,2.52,2.52,0,0,0,0-.28L30.74,25a3.09,3.09,0,1,0-1.1-2.36s0,0.08,0,.13l-3.53,1.76-2.15,1A2.7,2.7,0,1,0,22.7,30.7a2.74,2.74,0,0,0,1.09-.23l6,2.89A3.09,3.09,0,1,0,32.91,30.22Z" transform="translate(-6 -6)"/><circle class="cls-2" cx="22" cy="22" r="21"/></svg>