<?xml version="1.0" encoding="utf-8"?>
<!-- Generator: Adobe Illustrator 19.2.1, SVG Export Plug-In . SVG Version: 6.00 Build 0)  -->
<svg version="1.1" id="Layer_2" xmlns="http://www.w3.org/2000/svg" xmlns:xlink="http://www.w3.org/1999/xlink" x="0px" y="0px"
	 viewBox="0 0 1280 800" style="enable-background:new 0 0 1280 800;" xml:space="preserve">
<style type="text/css">
	.st0{fill:#29257A;}
	.st1{fill:#FFFFFF;}
</style>
<g>
	<path class="st0" d="M643.9,355.1c-4.4,4.1-9.5,6.9-14.9,8.3c-2.7,0.7-9.6,17.3-9.6,17.3s-4.2-16.4-7-17c-6.5-1.5-12.7-4.8-17.7-10
		c-13.2-13.9-12.6-35.9,1.4-49.1c13.9-13.2,35.9-12.6,49.1,1.4S657.8,341.9,643.9,355.1z"/>
	<g>
		<path class="st1" d="M630.4,338.5l5.4,2.9c-0.7,1.9,1.7,6,1.7,6l0.4,1.4l-4.6-5l-0.5-0.1l0.1,0.6l5,4.5l-1.4-0.4
			c0,0-4.1-2.5-6-1.8l-2.9-5.4l0,0l-0.1,0L630.4,338.5z"/>
		<path class="st1" d="M629.1,337.6c0,0-13.5-17.4-22.2-21.5l-2.9,2.9c0,0,1.8,7,21.9,21.9L629.1,337.6z"/>
		<g>
			<path class="st1" d="M605.2,314.7l0.5,0.5l-2.7,2.7l-0.5-0.5c-0.5-0.5-0.5-1.3,0-1.8l0.8-0.8
				C603.8,314.2,604.6,314.2,605.2,314.7z"/>
		</g>
	</g>
</g>
</svg>
