<?xml version="1.0" encoding="utf-8"?>
<!-- Generator: Adobe Illustrator 19.2.1, SVG Export Plug-In . SVG Version: 6.00 Build 0)  -->
<svg version="1.1" id="Layer_2" xmlns="http://www.w3.org/2000/svg" xmlns:xlink="http://www.w3.org/1999/xlink" x="0px" y="0px"
	 viewBox="0 0 1280 800" style="enable-background:new 0 0 1280 800;" xml:space="preserve">
<style type="text/css">
	.st0{fill:#472E96;}
	.st1{fill:#FFFFFF;}
</style>
<g>
	<path class="st0" d="M728.5,353.2c-4.4,4.1-9.5,6.9-14.9,8.3c-2.7,0.7-9.6,17.3-9.6,17.3s-4.2-16.4-7-17c-6.5-1.5-12.7-4.8-17.7-10
		c-13.2-13.9-12.6-35.9,1.4-49.1c13.9-13.2,35.9-12.6,49.1,1.4C743.1,318,742.5,340,728.5,353.2z"/>
	<g>
		<g>
			<path class="st1" d="M715.8,326.5v13.4c0,1-0.9,1.9-1.9,1.9h-18.6c-1,0-1.9-0.9-1.9-1.9v-13.4H715.8 M717.7,324.6h-26.2v15.3
				c0,2.1,1.7,3.8,3.8,3.8h18.6c2.1,0,3.8-1.7,3.8-3.8V324.6L717.7,324.6z"/>
		</g>
		<path class="st1" d="M700.6,317.2c0,0.9-0.7,1.7-1.7,1.7l0,0c-0.9,0-1.7-0.7-1.7-1.7v-2.7c0-0.9,0.7-1.7,1.7-1.7l0,0
			c0.9,0,1.7,0.7,1.7,1.7V317.2z"/>
		<path class="st1" d="M713.9,316.2h-1.1v1.1c0,1.6-1.3,2.9-2.9,2.9c-1.6,0-2.9-1.3-2.9-2.9v-1.1h-5.1v1.1c0,1.6-1.3,2.9-2.9,2.9
			c-1.6,0-2.9-1.3-2.9-2.9v-1.1h-0.7c-2.1,0-3.8,1.7-3.8,3.8v3.4h26.2V320C717.7,317.9,716,316.2,713.9,316.2z"/>
		<path class="st1" d="M711.5,317.2c0,0.9-0.7,1.7-1.7,1.7l0,0c-0.9,0-1.7-0.7-1.7-1.7v-2.7c0-0.9,0.7-1.7,1.7-1.7l0,0
			c0.9,0,1.7,0.7,1.7,1.7V317.2z"/>
		<g>
			<path class="st1" d="M703.8,333.5c0.3,0.1,0.6,0.3,0.8,0.6c0.2,0.3,0.2,0.9,0.2,1.8c0,0.7-0.1,1.3-0.2,1.7
				c-0.2,0.4-0.4,0.7-0.8,0.9c-0.4,0.2-0.9,0.3-1.5,0.3c-0.7,0-1.3-0.1-1.7-0.4c-0.4-0.2-0.7-0.5-0.8-0.9c-0.1-0.3-0.2-0.9-0.2-1.8
				V335h2.2v1.5c0,0.4,0,0.6,0.1,0.7c0,0.1,0.1,0.2,0.3,0.2c0.2,0,0.3-0.1,0.3-0.2c0.1-0.1,0.1-0.5,0.1-1v-0.6c0-0.3,0-0.6-0.1-0.8
				c-0.1-0.2-0.2-0.3-0.3-0.3c-0.2,0-0.4-0.1-0.9-0.1v-1.3c0.5,0,0.9,0,1-0.1c0.1,0,0.2-0.1,0.3-0.3c0.1-0.1,0.1-0.4,0.1-0.6v-0.5
				c0-0.3,0-0.5-0.1-0.6c-0.1-0.1-0.2-0.1-0.3-0.1c-0.2,0-0.3,0.1-0.3,0.2c-0.1,0.1-0.1,0.3-0.1,0.7v0.7h-2.2v-0.8
				c0-0.9,0.2-1.4,0.6-1.7c0.4-0.3,1-0.5,1.9-0.5c1.1,0,1.8,0.2,2.2,0.6c0.4,0.4,0.6,1,0.6,1.7c0,0.5-0.1,0.9-0.2,1.1
				C704.3,333.1,704.1,333.3,703.8,333.5z"/>
			<path class="st1" d="M709,329.6v9h-2.2v-4.8c0-0.7,0-1.1,0-1.3c0-0.1-0.1-0.2-0.3-0.3c-0.1-0.1-0.5-0.1-1-0.1h-0.2v-1
				c1.1-0.2,1.9-0.7,2.5-1.4H709z"/>
		</g>
	</g>
</g>
</svg>
