<?xml version="1.0" encoding="utf-8"?>
<!-- Generator: Adobe Illustrator 19.2.1, SVG Export Plug-In . SVG Version: 6.00 Build 0)  -->
<svg version="1.1" id="Layer_2" xmlns="http://www.w3.org/2000/svg" xmlns:xlink="http://www.w3.org/1999/xlink" x="0px" y="0px"
	 viewBox="0 0 1280 800" style="enable-background:new 0 0 1280 800;" xml:space="preserve">
<style type="text/css">
	.st0{fill:#00D8EC;}
	.st1{fill:#FFFFFF;}
</style>
<g>
	<path class="st0" d="M473.7,352.3c-4.4,4.1-9.5,6.9-14.9,8.3c-2.7,0.7-9.6,17.3-9.6,17.3s-4.2-16.4-7-17c-6.5-1.5-12.7-4.8-17.7-10
		C411.4,337,412,315,426,301.8c13.9-13.2,35.9-12.6,49.1,1.4C488.3,317.1,487.6,339.1,473.7,352.3z"/>
	<path class="st1" d="M462.2,314.5h-20.9c-2.2,0-3.9,1.8-3.9,3.9v20.2h0c0,0,0,0.1,0,0.1v0.3c0,2.2,1.8,3.9,3.9,3.9h20.9v-1.8h-20.9
		c-1.2,0-2.1-1-2.1-2.1v-0.3c0-1.2,1-2.1,2.1-2.1h20.9V314.5z M460.5,340.5v-3.2h-1.3v3.2H460.5z"/>
</g>
</svg>
