<?xml version="1.0" encoding="utf-8"?>
<!-- Generator: Adobe Illustrator 19.2.1, SVG Export Plug-In . SVG Version: 6.00 Build 0)  -->
<svg version="1.1" id="Layer_2" xmlns="http://www.w3.org/2000/svg" xmlns:xlink="http://www.w3.org/1999/xlink" x="0px" y="0px"
	 viewBox="0 0 1280 800" style="enable-background:new 0 0 1280 800;" xml:space="preserve">
<style type="text/css">
	.st0{fill:#4C439E;}
	.st1{fill:#F5F5F5;}
</style>
<g>
	<path class="st0" d="M814.1,353.6c-4.4,4.1-9.5,6.9-14.9,8.3c-2.7,0.7-9.6,17.3-9.6,17.3s-4.2-16.4-7-17c-6.5-1.5-12.7-4.8-17.7-10
		c-13.2-13.9-12.6-35.9,1.4-49.1c13.9-13.2,35.9-12.6,49.1,1.4C828.7,318.4,828.1,340.4,814.1,353.6z"/>
	<g>
		<path class="st1" d="M799.9,324.2c0-5.6-4.3-10.1-9.6-10.1s-9.6,4.5-9.6,10.1c0,2.7,1,5.3,2.9,7.2c1.5,2.9,1.6,4.3,1.6,4.5
			c-0.6,2.5,1.1,3.8,1.3,3.9c0,0,1.2,0.8,3.3,0.8l0,0c1.3,0,2.7-0.3,4.1-0.8h0.1l0,0c0,0,2-1.3,1.3-3.9c0-0.2,0.1-1.6,1.6-4.4
			C798.8,329.6,799.9,326.9,799.9,324.2z"/>
		<path class="st1" d="M790.1,342.3c-0.9,0-1.8-0.1-2.5-0.4l-0.3-0.1l0.2,3.4l1.6,1.4h1.9l1.7-1.4l0.4-3.3l-0.3,0.1
			C792.9,341.8,791.7,342.3,790.1,342.3z"/>
	</g>
</g>
</svg>
