<?xml version="1.0" encoding="utf-8"?>
<!-- Generator: Adobe Illustrator 19.2.1, SVG Export Plug-In . SVG Version: 6.00 Build 0)  -->
<svg version="1.1" id="Layer_2" xmlns="http://www.w3.org/2000/svg" xmlns:xlink="http://www.w3.org/1999/xlink" x="0px" y="0px"
	 viewBox="0 0 1280 800" style="enable-background:new 0 0 1280 800;" xml:space="preserve">
<style type="text/css">
	.st0{fill:#227AAA;}
	.st1{fill:#F5F5F5;}
	.st2{fill:#FFFFFF;}
</style>
<g>
	<path class="st0" d="M559.3,352.3c-4.4,4.1-9.5,6.9-14.9,8.3c-2.7,0.7-9.6,17.3-9.6,17.3s-4.2-16.4-7-17c-6.5-1.5-12.7-4.8-17.7-10
		c-13.2-13.9-12.6-35.9,1.4-49.1c13.9-13.2,35.9-12.6,49.1,1.4C573.9,317.1,573.3,339.1,559.3,352.3z"/>
	<g>
		<g>
			<polygon class="st1" points="537.8,314.9 537.4,321.2 541.5,320.4 542.4,314.1 			"/>
			<polygon class="st1" points="544.9,313.6 544.5,319.8 549.1,318.9 547.9,313 			"/>
			<polygon class="st1" points="530.9,316.3 530.5,322.5 534.4,321.8 535.3,315.4 			"/>
			<polygon class="st1" points="521.5,318.2 522.6,324.1 527.2,324.1 528.4,316.8 			"/>
		</g>
		<g>
			<path class="st1" d="M522.5,325.4v17.4h27v-17.4H522.5z M536,340.5c-3.5,0-6.4-2.9-6.4-6.4c0-3.5,2.9-6.4,6.4-6.4
				c3.5,0,6.4,2.9,6.4,6.4C542.4,337.6,539.5,340.5,536,340.5z"/>
		</g>
		<path class="st2" d="M535.4,330.4c0.3-0.2,0.5-0.1,0.5,0.3v7.1c0,0.4-0.2,0.5-0.5,0.3l-1.8-1.6c-0.3-0.2-0.7-0.4-1-0.4h-0.9
			c-0.3,0-0.6-0.3-0.6-0.7v-2.3c0-0.4,0.3-0.7,0.6-0.7h0.9c0.3,0,0.8-0.2,1-0.4L535.4,330.4z M539.1,332.5c-0.1-0.2-0.3-0.4-0.5-0.3
			c-0.2,0.1-0.3,0.3-0.2,0.5c0.3,1.1,0.3,2.1,0,3.3c-0.1,0.2,0,0.4,0.2,0.5c0.2,0.1,0.4-0.1,0.5-0.3
			C539.4,334.8,539.4,333.7,539.1,332.5z M537.8,333.8c0-0.2-0.2-0.3-0.4-0.3c-0.2,0-0.3,0.2-0.3,0.4c0,0.4,0,0.5,0,0.9
			c0,0.2,0.1,0.3,0.3,0.4c0.2,0,0.4-0.1,0.4-0.3C537.8,334.4,537.8,334.2,537.8,333.8z M540.1,330.9c-0.1-0.3-0.4-0.4-0.5-0.3
			c-0.2,0.1-0.2,0.3-0.1,0.6c0.9,2.1,0.9,4.2,0,6.3c-0.1,0.2-0.1,0.5,0.1,0.6c0.2,0.1,0.4-0.1,0.5-0.3
			C541.1,335.4,541.1,333.1,540.1,330.9z"/>
	</g>
</g>
</svg>
